<?xml version="1.0" encoding="UTF-8" standalone="no"?>
<!-- Created with Inkscape (http://www.inkscape.org/) -->

<svg
   xmlns:dc="http://purl.org/dc/elements/1.1/"
   xmlns:cc="http://creativecommons.org/ns#"
   xmlns:rdf="http://www.w3.org/1999/02/22-rdf-syntax-ns#"
   xmlns:svg="http://www.w3.org/2000/svg"
   xmlns="http://www.w3.org/2000/svg"
   xmlns:sodipodi="http://sodipodi.sourceforge.net/DTD/sodipodi-0.dtd"
   xmlns:inkscape="http://www.inkscape.org/namespaces/inkscape"
   width="51.295174mm"
   height="51.284763mm"
   viewBox="0 0 181.75455 181.71766"
   id="svg3366"
   version="1.1"
   inkscape:version="0.91 r13725"
   sodipodi:docname="Correct.svg">
  <defs
     id="defs3368" />
  <sodipodi:namedview
     id="base"
     pagecolor="#ffffff"
     bordercolor="#666666"
     borderopacity="1.0"
     inkscape:pageopacity="0.0"
     inkscape:pageshadow="2"
     inkscape:zoom="2.0172043"
     inkscape:cx="97.842365"
     inkscape:cy="87.042202"
     inkscape:document-units="px"
     inkscape:current-layer="layer1"
     showgrid="false"
     inkscape:window-width="1366"
     inkscape:window-height="705"
     inkscape:window-x="-8"
     inkscape:window-y="-8"
     inkscape:window-maximized="1"
     fit-margin-top="0"
     fit-margin-left="0"
     fit-margin-right="0"
     fit-margin-bottom="0" />
  <metadata
     id="metadata3371">
    <rdf:RDF>
      <cc:Work
         rdf:about="">
        <dc:format>image/svg+xml</dc:format>
        <dc:type
           rdf:resource="http://purl.org/dc/dcmitype/StillImage" />
        <dc:title></dc:title>
      </cc:Work>
    </rdf:RDF>
  </metadata>
  <g
     inkscape:label="Layer 1"
     inkscape:groupmode="layer"
     id="layer1"
     transform="translate(-250.72906,-236.25817)">
    <path
       style="fill:#005500"
       d="m 333.82449,417.80005 c -17.44679,-1.40007 -35.22892,-8.51816 -49.12391,-19.66405 -3.01234,-2.41635 -10.10222,-9.18373 -12.10239,-11.55188 -0.82775,-0.98004 -4.44084,-5.72394 -6.16918,-8.1 -2.89388,-3.97839 -7.42651,-12.57605 -9.64764,-18.3 -2.44285,-6.29534 -4.26731,-13.2831 -5.35997,-20.52899 -0.93021,-6.16856 -0.9216,-18.8236 0.017,-25.07101 0.97276,-6.47445 3.06136,-14.7157 4.90392,-19.35 2.11438,-5.31797 5.21252,-11.72055 7.25835,-15 7.87391,-12.62183 17.10577,-22.05098 29.12377,-29.74618 25.15711,-16.10823 56.86323,-18.70678 84.75,-6.94588 7.29436,3.07631 12.88514,6.44235 21.78463,13.11587 2.55417,1.91531 10.72897,10.19557 13.37368,13.5462 2.26653,2.87151 6.24169,8.46419 6.24169,8.78148 0,0.0926 0.39106,0.74895 0.86902,1.45847 3.37296,5.0071 8.15334,16.28331 9.94375,23.45585 2.21082,8.85672 2.79641,13.73259 2.79641,23.28419 0,8.22099 -0.26657,11.17434 -1.63707,18.13735 -2.68993,13.66646 -8.78589,26.77905 -17.78808,38.26265 -2.26033,2.88337 -3.27776,4.00798 -6.92693,7.65663 -4.15732,4.15672 -5.2566,5.13291 -9.1571,8.13176 -12.21886,9.3943 -26.57009,15.4308 -42.36311,17.81901 -4.51908,0.68337 -15.75522,1.01231 -20.78689,0.60853 z m 18.75,-12.49445 c 32.05747,-4.11105 58.64844,-27.47918 66.70633,-58.62148 3.97678,-15.36952 3.21639,-32.29185 -2.10291,-46.8 -2.59335,-7.07325 -4.56777,-10.9916 -8.69214,-17.25 -3.90489,-5.92534 -11.13099,-13.9421 -15.41797,-17.10494 -0.55343,-0.40831 -1.08208,-0.845 -1.17478,-0.97042 -0.46522,-0.62951 -7.17657,-5.21541 -9.78946,-6.6892 -7.19502,-4.05831 -15.44738,-7.22469 -22.92907,-8.79774 -6.36513,-1.33828 -8.38431,-1.52042 -16.8,-1.51546 -8.65307,0.005 -11.73902,0.32577 -18.48032,1.9204 -19.99435,4.72959 -37.96165,17.70315 -48.90109,35.30977 -10.80907,17.39679 -14.4041,37.59825 -10.32121,57.99759 3.17176,15.84702 12.23027,31.74338 24.17227,42.4188 17.79801,15.91033 40.52354,23.07873 63.73035,20.10268 z m -18.46978,-27.15349 c -0.0844,-0.13658 -0.52028,-0.17498 -0.96858,-0.0853 -0.72816,0.14564 -1.11528,-0.16738 -3.6295,-2.93482 -1.54792,-1.70382 -3.64769,-3.97535 -4.66616,-5.04785 -1.01847,-1.0725 -3.44967,-3.705 -5.40267,-5.85 -1.953,-2.145 -4.38223,-4.7775 -5.39828,-5.85 -1.75504,-1.85254 -3.83696,-4.12164 -7.15655,-7.8 -0.81899,-0.9075 -2.38219,-2.595 -3.47378,-3.75 -1.09158,-1.15502 -3.5372,-3.78194 -5.4347,-5.83762 -5.66197,-6.13396 -6.68945,-7.24466 -8.025,-8.67489 -0.70125,-0.75097 -1.275,-1.45519 -1.275,-1.56495 0,-0.10975 0.62628,-1.32972 1.39174,-2.71105 0.76545,-1.38133 1.75867,-3.18651 2.20714,-4.01151 0.44848,-0.825 2.162,-3.93 3.80783,-6.9 1.64582,-2.97 4.19636,-7.59112 5.66785,-10.26915 2.19366,-3.99233 2.79431,-4.8702 3.33553,-4.875 0.36305,-0.003 0.76805,-0.18928 0.9,-0.41347 0.2759,-0.46878 3.01762,-0.85206 3.26236,-0.45606 0.0896,0.14502 0.52624,0.26486 0.97026,0.26631 0.66,0.002 1.02623,0.34292 2.00729,1.86783 3.28486,5.10581 14.69906,20.94922 15.72683,21.82954 0.0963,0.0825 1.18146,1.365 2.41144,2.85 1.22998,1.485 2.37704,2.79812 2.54903,2.91805 0.19248,0.13422 1.6199,-2.40328 3.7127,-6.6 1.87,-3.74993 3.65337,-7.29055 3.96304,-7.86805 0.30968,-0.5775 5.86718,-11.7409 12.35,-24.80757 9.79573,-19.74407 11.89086,-23.76051 12.40196,-23.775 0.33825,-0.01 0.77267,-0.17509 0.96537,-0.3678 0.29961,-0.29961 2.45891,-0.43061 4.37967,-0.2657 0.30803,0.0265 1.54034,0.74963 2.73848,1.60708 1.19814,0.85744 3.77538,2.70649 5.72721,4.10899 7.01769,5.04261 8.39105,6.01976 9.49053,6.75253 1.18676,0.79095 1.21359,1.07617 0.23962,2.54747 -0.27307,0.4125 -0.93725,1.6275 -1.47595,2.7 -1.31892,2.62579 -5.31312,10.28876 -6.33301,12.15 -0.45206,0.825 -1.66847,3.12 -2.70314,5.1 -1.03466,1.98 -2.38503,4.545 -3.00083,5.7 -2.61848,4.91131 -3.69538,6.95322 -7.04074,13.35 -1.94155,3.7125 -3.9657,7.56 -4.49811,8.55 -0.53242,0.99 -1.64721,3.0825 -2.47731,4.65 -0.8301,1.5675 -1.99579,3.76246 -2.59042,4.87769 -0.59463,1.11522 -2.04567,3.88272 -3.22454,6.15 -1.17888,2.26727 -2.71579,5.20231 -3.41537,6.52231 -0.69958,1.32 -1.91446,3.615 -2.69974,5.1 -0.78527,1.485 -1.93036,3.645 -2.54463,4.8 -0.61428,1.155 -1.79103,3.3825 -2.61501,4.95 -4.86588,9.25664 -5.22424,9.87128 -5.87334,10.07379 -0.36506,0.1139 -0.7399,0.32501 -0.83299,0.46914 -0.25223,0.39056 -3.27271,1.11279 -3.45053,0.82506 z"
       id="path3346"
       inkscape:connector-curvature="0"
       sodipodi:nodetypes="csssssssssssssssssssssccssssscsscsssssccssssssssssssscsccscssscscccsssssssssssssssssccc" />
  </g>
</svg>
