<?xml version="1.0" encoding="UTF-8" standalone="no"?>
<!-- Created with Inkscape (http://www.inkscape.org/) -->

<svg
   xmlns:dc="http://purl.org/dc/elements/1.1/"
   xmlns:cc="http://creativecommons.org/ns#"
   xmlns:rdf="http://www.w3.org/1999/02/22-rdf-syntax-ns#"
   xmlns:svg="http://www.w3.org/2000/svg"
   xmlns="http://www.w3.org/2000/svg"
   xmlns:sodipodi="http://sodipodi.sourceforge.net/DTD/sodipodi-0.dtd"
   xmlns:inkscape="http://www.inkscape.org/namespaces/inkscape"
   width="50.846664mm"
   height="50.796505mm"
   viewBox="0 0 180.16535 179.98762"
   id="svg3424"
   version="1.1"
   inkscape:version="0.91 r13725"
   sodipodi:docname="Incorrect.svg">
  <defs
     id="defs3426" />
  <sodipodi:namedview
     id="base"
     pagecolor="#ffffff"
     bordercolor="#666666"
     borderopacity="1.0"
     inkscape:pageopacity="0.0"
     inkscape:pageshadow="2"
     inkscape:zoom="1.675"
     inkscape:cx="105.08418"
     inkscape:cy="90.054577"
     inkscape:document-units="px"
     inkscape:current-layer="layer1"
     showgrid="false"
     inkscape:window-width="1366"
     inkscape:window-height="705"
     inkscape:window-x="-8"
     inkscape:window-y="-8"
     inkscape:window-maximized="1"
     fit-margin-top="0"
     fit-margin-left="0"
     fit-margin-right="0"
     fit-margin-bottom="0" />
  <metadata
     id="metadata3429">
    <rdf:RDF>
      <cc:Work
         rdf:about="">
        <dc:format>image/svg+xml</dc:format>
        <dc:type
           rdf:resource="http://purl.org/dc/dcmitype/StillImage" />
        <dc:title></dc:title>
      </cc:Work>
    </rdf:RDF>
  </metadata>
  <g
     inkscape:label="Layer 1"
     inkscape:groupmode="layer"
     id="layer1"
     transform="translate(-250.63011,-411.00059)">
    <path
       style="fill:#800000"
       d="m 332.31235,590.7103 c -3.61091,-0.30166 -9.05967,-1.22556 -13.35,-2.26364 -11.27105,-2.72715 -22.91583,-8.27019 -32.55,-15.49416 -14.69617,-11.01959 -26.29949,-27.38369 -31.73741,-44.75911 -0.994,-3.17603 -2.49754,-9.37902 -2.90868,-12 -0.18118,-1.155 -0.38943,-2.4375 -0.46278,-2.85 -0.95974,-5.39752 -0.88009,-18.67127 0.15282,-25.46717 2.27255,-14.95201 7.95462,-28.56682 16.98657,-40.70155 13.63444,-18.31832 33.56893,-30.5943 56.47481,-34.7781 19.82652,-3.62134 41.2755,-0.12204 58.99467,9.6247 3.34812,1.8417 8.86641,5.37264 10.68729,6.83839 0.43302,0.34856 1.17204,0.90374 1.64229,1.23374 2.84697,1.99788 11.9115,10.97129 14.84928,14.7 14.08617,17.8787 20.95293,39.5434 19.51737,61.57767 -0.33564,5.15179 -1.10442,10.93208 -1.86498,14.02232 -1.49472,6.0733 -2.51223,9.37841 -4.24854,13.8 -1.18434,3.01597 -5.16942,11.18965 -6.1887,12.69342 -0.30069,0.44362 -1.33035,2.02158 -2.28813,3.50658 -10.9548,16.98486 -28.18461,30.09225 -47.85588,36.40584 -5.89512,1.89207 -13.65225,3.44716 -19.65,3.93928 -4.19304,0.34404 -11.90473,0.33061 -16.2,-0.0282 z m 21.45,-12.52937 c 11.65143,-2.02823 21.61494,-5.89151 31.04514,-12.03754 5.94459,-3.87433 12.26991,-9.57374 17.31318,-15.6 2.2731,-2.71615 6.54168,-8.70577 6.54168,-9.17922 0,-0.12294 0.1875,-0.43666 0.41664,-0.69716 0.61491,-0.69901 3.19446,-5.74734 4.64571,-9.09195 6.94995,-16.01705 8.28153,-34.33643 3.73212,-51.34569 -6.84489,-25.59161 -26.10663,-46.01133 -51.23814,-54.31851 -7.01559,-2.31899 -11.94288,-3.26563 -19.84224,-3.81215 -12.66964,-0.87654 -25.66669,1.48238 -37.32119,6.77368 -9.20968,4.18132 -16.00763,8.91552 -23.2526,16.1935 -2.15033,2.16013 -4.92737,5.21001 -6.1712,6.77751 -7.03988,8.87182 -12.21536,19.58643 -14.78073,30.6 -1.60769,6.90209 -1.83857,9.18524 -1.83538,18.15 0.003,7.37805 0.0858,8.87448 0.68381,12.29999 2.29301,13.13522 6.50586,23.08517 14.67094,34.65 1.47757,2.09279 5.00233,6.14073 7.39082,8.48785 13.48728,13.25363 29.02091,20.56655 48.50144,22.8335 0.5775,0.0672 4.425,0.076 8.55,0.0195 5.78781,-0.0793 8.28762,-0.23982 10.95,-0.70328 z m -43.2,-26.87941 c -0.69824,-0.38901 -3.90764,-3.74914 -5.8819,-6.15813 -0.47328,-0.5775 -2.28456,-2.67 -4.02507,-4.65 -5.76149,-6.55428 -9.7331,-11.08454 -10.49303,-11.96901 -0.4125,-0.4801 -1.32352,-1.49348 -2.02448,-2.25195 -2.3062,-2.4954 -2.69939,-1.83358 6.42394,-10.81284 4.45172,-4.38141 10.96593,-10.76874 14.47603,-14.19408 l 6.38199,-6.2279 -2.65294,-3.0721 c -1.45912,-1.68966 -3.32831,-3.82273 -4.15375,-4.74014 -0.82543,-0.91742 -1.90688,-2.13242 -2.40321,-2.7 -0.49633,-0.56759 -2.78945,-3.19197 -5.09583,-5.83197 -2.30637,-2.64 -4.63286,-5.2725 -5.16998,-5.85 -0.53711,-0.5775 -0.97774,-1.32945 -0.97917,-1.67101 -0.002,-0.40363 1.38985,-1.97883 3.97532,-4.5 2.18786,-2.13344 7.88397,-7.69879 12.65802,-12.36744 4.77405,-4.66866 9.13229,-8.70304 9.68497,-8.9653 0.93676,-0.44453 1.07623,-0.43853 2.05758,0.0884 0.579,0.31091 2.64446,2.3878 4.58992,4.6153 5.12999,5.8737 8.66173,9.89997 9.73885,11.10254 0.51851,0.57889 1.81532,2.06389 2.88182,3.3 1.0665,1.2361 2.15277,2.46336 2.41392,2.72725 0.43428,0.43879 0.9993,-0.0316 6.61095,-5.5033 3.37482,-3.29071 8.43819,-8.26537 11.25189,-11.0548 2.8137,-2.78943 5.31795,-5.07169 5.565,-5.07169 0.24705,0 0.60366,-0.15449 0.79248,-0.34332 0.645,-0.64501 2.11788,0.34771 4.68231,3.15593 2.95668,3.23777 6.58818,7.34485 7.83204,8.85773 1.23033,1.49642 4.74234,5.51491 5.13846,5.8795 1.20777,1.11159 8.09076,9.31009 8.16195,9.72189 0.0565,0.32659 -1.66713,2.2217 -4.8,5.27761 -2.68845,2.62243 -8.10402,7.92187 -12.03462,11.77655 l -7.14654,7.00851 1.63047,1.8578 c 0.89676,1.02178 2.7627,3.15528 4.14654,4.7411 1.38384,1.58582 6.22857,7.11269 10.76607,12.28195 4.65777,5.30627 8.2116,9.60246 8.1618,9.8667 -0.0485,0.25742 -2.95101,3.29414 -6.45,6.74826 -20.61228,20.34803 -20.00622,19.81767 -21.79839,19.07533 -0.48486,-0.20084 -1.54986,-1.12801 -2.36664,-2.06037 -0.81678,-0.93235 -3.54375,-4.05769 -6.05991,-6.94519 -2.51616,-2.8875 -5.48274,-6.2625 -6.59238,-7.5 -1.10964,-1.2375 -3.65535,-4.14 -5.6571,-6.45 -2.00175,-2.31 -3.69372,-4.2 -3.75993,-4.2 -0.0662,0 -5.16199,4.93981 -11.32393,10.97735 -14.13414,13.84882 -15.90512,15.52999 -16.90731,16.04993 -0.99626,0.51687 -1.28858,0.51438 -2.24621,-0.0191 z"
       id="path3346"
       inkscape:connector-curvature="0"
       sodipodi:nodetypes="cssssssssssssssssssscccssscsssssssscssssscccsssssscssssscssccssscssscssccsscssscssssssssscc" />
  </g>
</svg>
