<?xml version="1.0" encoding="UTF-8" standalone="no"?>
<!-- Created with Inkscape (http://www.inkscape.org/) -->

<svg
   xmlns:dc="http://purl.org/dc/elements/1.1/"
   xmlns:cc="http://creativecommons.org/ns#"
   xmlns:rdf="http://www.w3.org/1999/02/22-rdf-syntax-ns#"
   xmlns:svg="http://www.w3.org/2000/svg"
   xmlns="http://www.w3.org/2000/svg"
   xmlns:sodipodi="http://sodipodi.sourceforge.net/DTD/sodipodi-0.dtd"
   xmlns:inkscape="http://www.inkscape.org/namespaces/inkscape"
   width="132.34929mm"
   height="17.947409mm"
   viewBox="0 0 468.95417 63.59318"
   id="svg2"
   version="1.1"
   inkscape:version="0.91 r13725"
   sodipodi:docname="ptulogo.svg"
   inkscape:export-filename="C:\Users\Todd\Projects\ptuAng\public\images\ptulogo.png"
   inkscape:export-xdpi="90"
   inkscape:export-ydpi="90">
  <defs
     id="defs4" />
  <sodipodi:namedview
     id="base"
     pagecolor="#ffffff"
     bordercolor="#666666"
     borderopacity="1"
     inkscape:pageopacity="0.0"
     inkscape:pageshadow="2"
     inkscape:zoom="0.94205926"
     inkscape:cx="181.8092"
     inkscape:cy="-36.750813"
     inkscape:document-units="px"
     inkscape:current-layer="layer1"
     showgrid="false"
     inkscape:window-width="1366"
     inkscape:window-height="705"
     inkscape:window-x="-8"
     inkscape:window-y="-8"
     inkscape:window-maximized="1"
     fit-margin-top="0"
     fit-margin-left="0"
     fit-margin-right="0"
     fit-margin-bottom="0"
     borderlayer="true" />
  <metadata
     id="metadata7">
    <rdf:RDF>
      <cc:Work
         rdf:about="">
        <dc:format>image/svg+xml</dc:format>
        <dc:type
           rdf:resource="http://purl.org/dc/dcmitype/StillImage" />
        <dc:title></dc:title>
      </cc:Work>
    </rdf:RDF>
  </metadata>
  <g
     inkscape:label="Layer 1"
     inkscape:groupmode="layer"
     id="layer1"
     transform="translate(-24.015263,-62.570329)">
    <flowRoot
       xml:space="preserve"
       id="flowRoot3336"
       style="font-style:normal;font-variant:normal;font-weight:normal;font-stretch:normal;font-size:70px;line-height:125%;font-family:'Sitka Display';-inkscape-font-specification:'Sitka Display';letter-spacing:0px;word-spacing:0px;opacity:1;fill:#00203f;fill-opacity:1;stroke:none;stroke-width:1px;stroke-linecap:butt;stroke-linejoin:miter;stroke-opacity:1"
       transform="translate(277.47638,51.423932)"><flowRegion
         id="flowRegion3338"><rect
           id="rect3340"
           width="514.44476"
           height="110.03665"
           x="-207.84706"
           y="5.6030416"
           style="font-style:normal;font-variant:normal;font-weight:normal;font-stretch:normal;font-size:70px;font-family:'Sitka Display';-inkscape-font-specification:'Sitka Display';fill:#00203f;fill-opacity:1" /></flowRegion><flowPara
         id="flowPara3342">PT University</flowPara></flowRoot>    <path
       style="fill:#00203f;fill-opacity:1"
       d="m 42.874403,94.366909 0,-31.79658 4.72776,0 4.72778,0 0,31.79658 0,31.796601 -4.72778,0 -4.72776,0 z m -10.51796,0.13929 0,-25.863682 4.72777,0 4.72777,0 0,25.863682 0,25.863721 -4.72777,0 -4.72777,0 z m -8.34118,-0.0466 0,-20.579708 3.52266,0 3.52265,0 0,20.579708 0,20.579741 -3.52265,0 -3.52266,0 z m 29.28585,1.48274 0,-5.056876 14.2031,0 0,4.429456 0,5.056861 -14.2031,0 z"
       id="path5307"
       inkscape:connector-curvature="0"
       sodipodi:nodetypes="cccccccccccccccccccccccccccccccccc" />
    <path
       style="fill:#00203f;fill-opacity:1"
       d="m 474.11032,94.366919 0,31.796591 -4.72776,0 -4.72778,0 0,-31.796591 0,-31.79659 4.72778,0 4.72776,0 z m 10.51796,-0.13929 0,25.863691 -4.72777,0 -4.72777,0 0,-25.863691 0,-25.86371 4.72777,0 4.72777,0 z m 8.34118,0.0466 0,20.579721 -3.52266,0 -3.52265,0 0,-20.579721 0,-20.57973 3.52265,0 3.52266,0 z m -29.28585,-1.48274 0,5.05688 -14.2031,0 0,-4.42946 0,-5.05686 14.2031,0 z"
       id="path5307-3"
       inkscape:connector-curvature="0"
       sodipodi:nodetypes="cccccccccccccccccccccccccccccccccc" />
    <rect
       style="opacity:1;fill:#00203f;fill-opacity:1"
       id="rect5372"
       width="353.3338"
       height="1.7883301"
       x="71.433167"
       y="113.48889" />
    <rect
       style="opacity:1;fill:#00203f;fill-opacity:1"
       id="rect5372-4"
       width="12.602601"
       height="1.7883301"
       x="434.33536"
       y="113.48889" />
  </g>
</svg>
