<?xml version="1.0" encoding="UTF-8" standalone="no"?>
<!-- Created with Inkscape (http://www.inkscape.org/) -->

<svg
   xmlns:dc="http://purl.org/dc/elements/1.1/"
   xmlns:cc="http://creativecommons.org/ns#"
   xmlns:rdf="http://www.w3.org/1999/02/22-rdf-syntax-ns#"
   xmlns:svg="http://www.w3.org/2000/svg"
   xmlns="http://www.w3.org/2000/svg"
   xmlns:xlink="http://www.w3.org/1999/xlink"
   xmlns:sodipodi="http://sodipodi.sourceforge.net/DTD/sodipodi-0.dtd"
   xmlns:inkscape="http://www.inkscape.org/namespaces/inkscape"
   sodipodi:docname="ptusealgreyO15.svg"
   inkscape:version="0.91 r13725"
   version="1.1"
   id="svg4891"
   viewBox="0 0 1120.6401 1120.6401"
   height="316.26953mm"
   width="316.26953mm"
   inkscape:export-filename="C:\Users\Todd\Projects\ptuM\public\images\ptusealgreyO15.png"
   inkscape:export-xdpi="90"
   inkscape:export-ydpi="90">
  <defs
     id="defs4893">
    <path
       sodipodi:nodetypes="cssc"
       inkscape:connector-curvature="0"
       id="path4194"
       d="m -350.84996,309.12157 c -19.61192,-50.20501 8.44316,-84.57862 30.18123,-98.37397 32.40362,-20.56389 79.93845,-9.77887 103.04586,22.58251 17.06313,23.89652 17.3819,57.25954 6.89348,75.79146"
       style="fill:none;fill-rule:evenodd;stroke:none;stroke-width:1px;stroke-linecap:butt;stroke-linejoin:miter;stroke-opacity:1" />
    <path
       sodipodi:nodetypes="cssc"
       inkscape:connector-curvature="0"
       id="path4214"
       d="m -357.33099,324.01268 c 10.48224,18.5455 31.63143,29.69009 42.73527,36.08308 14.178,8.16293 46.85218,8.14824 59.26494,3.2253 17.65252,-7.00104 43.94476,-23.98819 50.39536,-39.30838"
       style="fill:none;fill-rule:evenodd;stroke:none;stroke-width:1px;stroke-linecap:butt;stroke-linejoin:miter;stroke-opacity:1" />
    <path
       sodipodi:nodetypes="cssc"
       inkscape:connector-curvature="0"
       id="path4194-0"
       d="m -350.84996,309.12157 c -19.61192,-50.20501 8.44316,-84.57862 30.18123,-98.37397 32.40362,-20.56389 79.93845,-9.77887 103.04586,22.58251 17.06313,23.89652 17.3819,57.25954 6.89348,75.79146"
       style="fill:none;fill-rule:evenodd;stroke:none;stroke-width:1px;stroke-linecap:butt;stroke-linejoin:miter;stroke-opacity:1" />
    <path
       sodipodi:nodetypes="cssc"
       inkscape:connector-curvature="0"
       id="path4214-9"
       d="m -357.33099,324.01268 c 10.48224,18.5455 31.63143,29.69009 42.73527,36.08308 14.178,8.16293 46.85218,8.14824 59.26494,3.2253 17.65252,-7.00104 43.94476,-23.98819 50.39536,-39.30838"
       style="fill:none;fill-rule:evenodd;stroke:none;stroke-width:1px;stroke-linecap:butt;stroke-linejoin:miter;stroke-opacity:1" />
  </defs>
  <sodipodi:namedview
     inkscape:window-maximized="1"
     inkscape:window-y="-8"
     inkscape:window-x="-8"
     inkscape:window-height="705"
     inkscape:window-width="1366"
     fit-margin-bottom="0"
     fit-margin-right="0"
     fit-margin-left="0"
     fit-margin-top="0"
     showgrid="false"
     inkscape:current-layer="layer1"
     inkscape:document-units="px"
     inkscape:cy="538.09435"
     inkscape:cx="238.423"
     inkscape:zoom="0.35"
     inkscape:pageshadow="2"
     inkscape:pageopacity="0.0"
     borderopacity="1.0"
     bordercolor="#666666"
     pagecolor="#ffffff"
     id="base" />
  <metadata
     id="metadata4896">
    <rdf:RDF>
      <cc:Work
         rdf:about="">
        <dc:format>image/svg+xml</dc:format>
        <dc:type
           rdf:resource="http://purl.org/dc/dcmitype/StillImage" />
        <dc:title></dc:title>
      </cc:Work>
    </rdf:RDF>
  </metadata>
  <g
     inkscape:label="Layer 1"
     inkscape:groupmode="layer"
     id="layer1"
     transform="translate(317.78289,16.208993)">
    <path
       style="opacity:1;fill:#b3b3b3;fill-opacity:0.05882353;fill-rule:nonzero"
       d="M 242.53714,-16.208993 A 560.32008,560.32008 0 0 0 -317.78289,544.11104 560.32008,560.32008 0 0 0 242.53714,1104.4311 560.32008,560.32008 0 0 0 802.85717,544.11104 560.32008,560.32008 0 0 0 242.53714,-16.208993 Z m 0,22.7716829 A 537.54284,537.54284 0 0 1 780.07428,544.11104 537.54284,537.54284 0 0 1 242.53714,1081.6482 537.54284,537.54284 0 0 1 -295.01121,544.11104 537.54284,537.54284 0 0 1 242.53714,6.5626899 Z"
       id="path4186-8"
       inkscape:connector-curvature="0" />
    <path
       style="opacity:1;fill:#b3b3b3;fill-opacity:0.05882353;fill-rule:nonzero"
       d="M 560.32031 144.3457 A 415.97342 415.97342 0 0 0 144.3457 560.32031 A 415.97342 415.97342 0 0 0 560.32031 976.29297 A 415.97342 415.97342 0 0 0 976.29297 560.32031 A 415.97342 415.97342 0 0 0 560.32031 144.3457 z M 306.20117 293.75977 L 362.90625 293.75977 C 375.44489 293.75977 386.06539 294.83613 394.76758 296.98828 C 403.46977 299.04686 411.19058 302.32105 417.92773 306.8125 C 425.88135 312.1461 432.01014 318.79053 436.31445 326.74414 C 440.71233 334.69776 442.91016 344.75557 442.91016 356.91992 C 442.91016 366.18354 441.27306 374.79248 437.99805 382.74609 C 434.8166 390.60614 430.3249 397.43682 424.52344 403.23828 C 417.3184 410.44332 408.80355 415.87023 398.97852 419.51953 C 389.15346 423.07526 376.75471 424.85352 361.7832 424.85352 L 333.99219 424.85352 L 333.99219 502.75195 L 306.20117 502.75195 L 306.20117 293.75977 z M 451.61328 293.75977 L 628.74414 293.75977 L 628.74414 318.46289 L 554.07422 318.46289 L 554.07422 502.75195 L 526.2832 502.75195 L 526.2832 318.46289 L 451.61328 318.46289 L 451.61328 293.75977 z M 654.00781 293.75977 L 681.79883 293.75977 L 681.79883 420.22266 C 681.79883 431.54484 682.54777 440.48121 684.04492 447.03125 C 685.63564 453.58129 688.25694 459.52187 691.90625 464.85547 C 696.02342 470.93764 701.58953 475.52345 708.60742 478.61133 C 715.71889 481.6992 724.23372 483.24219 734.15234 483.24219 C 744.16454 483.24219 752.68132 481.74626 759.69922 478.75195 C 766.71711 475.66408 772.33028 471.03122 776.54102 464.85547 C 780.19032 459.52187 782.76457 453.44011 784.26172 446.60938 C 785.85244 439.68505 786.64648 431.12317 786.64648 420.92383 L 786.64648 293.75977 L 814.4375 293.75977 L 814.4375 418.81836 C 814.4375 433.97701 812.75336 447.21686 809.38477 458.53906 C 806.10975 469.76769 800.68282 479.12557 793.10352 486.61133 C 785.89848 493.7228 777.47775 498.91639 767.83984 502.19141 C 758.20193 505.46642 746.9717 507.10352 734.15234 507.10352 C 721.05229 507.10352 709.63773 505.37232 699.90625 501.91016 C 690.17477 498.44799 681.98736 493.34851 675.34375 486.61133 C 667.76442 478.93843 662.29044 469.67466 658.92188 458.82031 C 655.64686 447.96597 654.00781 434.63202 654.00781 418.81836 L 654.00781 293.75977 z M 333.99219 317.62109 L 333.99219 401.13281 L 357.43164 401.13281 C 368.66027 401.13281 377.78486 400.15056 384.80273 398.18555 C 391.82063 396.12696 397.5279 392.89983 401.92578 388.50195 C 406.32366 384.0105 409.41159 379.28548 411.18945 374.32617 C 413.06089 369.36686 413.99609 363.79879 413.99609 357.62305 C 413.99609 350.41801 412.73347 344.14805 410.20703 338.81445 C 407.68059 333.48085 403.84372 329.13031 398.69727 325.76172 C 394.20581 322.86099 389.05927 320.80237 383.25781 319.58594 C 377.54992 318.27593 370.29771 317.62109 361.50195 317.62109 L 333.99219 317.62109 z M 243.72852 538.55078 C 246.72282 538.55078 249.40843 539.0472 251.78516 540.03906 C 254.1806 541.01221 256.21137 542.40541 257.87695 544.2207 C 259.57996 546.09214 260.88101 548.38407 261.7793 551.09766 C 262.6963 553.81124 263.1543 556.89054 263.1543 560.33398 C 263.1543 563.77743 262.68572 566.86536 261.75 569.59766 C 260.833 572.31124 259.54253 574.57533 257.87695 576.39062 C 256.15523 578.28078 254.11583 579.70377 251.75781 580.6582 C 249.41851 581.61264 246.74153 582.08984 243.72852 582.08984 C 240.79036 582.08984 238.11337 581.60205 235.69922 580.62891 C 233.30378 579.65576 231.26437 578.24335 229.58008 576.39062 C 227.89578 574.5379 226.59474 572.26518 225.67773 569.57031 C 224.77944 566.87544 224.33203 563.79615 224.33203 560.33398 C 224.33203 556.92797 224.77944 553.87651 225.67773 551.18164 C 226.57602 548.46805 227.88765 546.14828 229.60938 544.2207 C 231.25624 542.38669 233.29565 540.98291 235.72852 540.00977 C 238.1801 539.03662 240.8465 538.55078 243.72852 538.55078 z M 432.81836 538.55078 C 435.81266 538.55078 438.49827 539.0472 440.875 540.03906 C 443.27044 541.01221 445.30122 542.40541 446.9668 544.2207 C 448.66981 546.09214 449.97085 548.38407 450.86914 551.09766 C 451.78615 553.81124 452.24414 556.89054 452.24414 560.33398 C 452.24414 563.77743 451.77556 566.86536 450.83984 569.59766 C 449.92284 572.31124 448.63238 574.57533 446.9668 576.39062 C 445.24507 578.28078 443.20567 579.70377 440.84766 580.6582 C 438.50836 581.61264 435.83138 582.08984 432.81836 582.08984 C 429.8802 582.08984 427.20517 581.60205 424.79102 580.62891 C 422.39557 579.65576 420.35422 578.24335 418.66992 576.39062 C 416.98563 574.5379 415.68654 572.26518 414.76953 569.57031 C 413.87124 566.87544 413.42188 563.79615 413.42188 560.33398 C 413.42188 556.92797 413.87124 553.87651 414.76953 551.18164 C 415.66782 548.46805 416.9775 546.14828 418.69922 544.2207 C 420.34608 542.38669 422.38549 540.98291 424.81836 540.00977 C 427.26994 539.03662 429.93634 538.55078 432.81836 538.55078 z M 899.03125 538.55078 C 902.02555 538.55078 904.71116 539.0472 907.08789 540.03906 C 909.48333 541.01221 911.51411 542.40541 913.17969 544.2207 C 914.8827 546.09214 916.18374 548.38407 917.08203 551.09766 C 917.99904 553.81124 918.45703 556.89054 918.45703 560.33398 C 918.45703 563.77743 917.98845 566.86536 917.05273 569.59766 C 916.13573 572.31124 914.84527 574.57533 913.17969 576.39062 C 911.45796 578.28078 909.41856 579.70377 907.06055 580.6582 C 904.72125 581.61264 902.04427 582.08984 899.03125 582.08984 C 896.09309 582.08984 893.41806 581.60205 891.00391 580.62891 C 888.60846 579.65576 886.56711 578.24335 884.88281 576.39062 C 883.19852 574.5379 881.89943 572.26518 880.98242 569.57031 C 880.08413 566.87544 879.63477 563.79615 879.63477 560.33398 C 879.63477 556.92797 880.08413 553.87651 880.98242 551.18164 C 881.88071 548.46805 883.19039 546.14828 884.91211 544.2207 C 886.55898 542.38669 888.59838 540.98291 891.03125 540.00977 C 893.48283 539.03662 896.14923 538.55078 899.03125 538.55078 z M 532.38867 538.66211 C 534.6344 538.66211 536.87064 538.93385 539.09766 539.47656 C 541.34338 540.01928 543.83215 540.97369 546.56445 542.33984 L 546.56445 548.9375 L 546.14453 548.9375 C 543.84266 547.00992 541.55936 545.60614 539.29492 544.72656 C 537.03048 543.84699 534.60602 543.40625 532.02344 543.40625 C 529.90871 543.40625 527.99988 543.75288 526.29688 544.44531 C 524.61258 545.11903 523.10607 546.17618 521.77734 547.61719 C 520.48605 549.02077 519.47595 550.79902 518.74609 552.95117 C 518.03495 555.08461 517.67969 557.55417 517.67969 560.36133 C 517.67969 563.29949 518.07142 565.82668 518.85742 567.94141 C 519.66214 570.05613 520.69145 571.7787 521.94531 573.10742 C 523.25532 574.49229 524.78105 575.52159 526.52148 576.19531 C 528.28064 576.85032 530.13378 577.17773 532.08008 577.17773 C 534.75624 577.17773 537.26422 576.71779 539.60352 575.80078 C 541.94281 574.88378 544.13201 573.50979 546.17188 571.67578 L 546.56445 571.67578 L 546.56445 578.1875 C 545.53516 578.63665 544.59996 579.05817 543.75781 579.45117 C 542.93438 579.84417 541.84939 580.25512 540.50195 580.68555 C 539.36038 581.04112 538.11501 581.3407 536.76758 581.58398 C 535.43886 581.84599 533.97077 581.97656 532.36133 581.97656 C 529.3296 581.97656 526.56909 581.55699 524.08008 580.71484 C 521.60978 579.85398 519.45706 578.51451 517.62305 576.69922 C 515.82647 574.92135 514.42269 572.66589 513.41211 569.93359 C 512.40153 567.18258 511.89648 563.99192 511.89648 560.36133 C 511.89648 556.91788 512.38232 553.84054 513.35547 551.12695 C 514.32862 548.41337 515.7324 546.11949 517.56641 544.24805 C 519.34427 542.43275 521.48837 541.04818 523.99609 540.09375 C 526.52254 539.13932 529.31951 538.66211 532.38867 538.66211 z M 764.25977 538.66211 C 766.50549 538.66211 768.74174 538.93385 770.96875 539.47656 C 773.21448 540.01928 775.70325 540.97369 778.43555 542.33984 L 778.43555 548.9375 L 778.01562 548.9375 C 775.71376 547.00992 773.43046 545.60614 771.16602 544.72656 C 768.90157 543.84699 766.47712 543.40625 763.89453 543.40625 C 761.77981 543.40625 759.87098 543.75288 758.16797 544.44531 C 756.48367 545.11903 754.97716 546.17618 753.64844 547.61719 C 752.35714 549.02077 751.34705 550.79902 750.61719 552.95117 C 749.90604 555.08461 749.55078 557.55417 749.55078 560.36133 C 749.55078 563.29949 749.94251 565.82668 750.72852 567.94141 C 751.53323 570.05613 752.56254 571.7787 753.81641 573.10742 C 755.12641 574.49229 756.65214 575.52159 758.39258 576.19531 C 760.15173 576.85032 762.00488 577.17773 763.95117 577.17773 C 766.62733 577.17773 769.13531 576.71779 771.47461 575.80078 C 773.81391 574.88378 776.0031 573.50979 778.04297 571.67578 L 778.43555 571.67578 L 778.43555 578.1875 C 777.40626 578.63665 776.47105 579.05817 775.62891 579.45117 C 774.80547 579.84417 773.72048 580.25512 772.37305 580.68555 C 771.23147 581.04112 769.98611 581.3407 768.63867 581.58398 C 767.30995 581.84599 765.84186 581.97656 764.23242 581.97656 C 761.20069 581.97656 758.44019 581.55699 755.95117 580.71484 C 753.48087 579.85398 751.32815 578.51451 749.49414 576.69922 C 747.69756 574.92135 746.29378 572.66589 745.2832 569.93359 C 744.27263 567.18258 743.76758 563.99192 743.76758 560.36133 C 743.76758 556.91788 744.25341 553.84054 745.22656 551.12695 C 746.19971 548.41337 747.60349 546.11949 749.4375 544.24805 C 751.21537 542.43275 753.35946 541.04818 755.86719 540.09375 C 758.39363 539.13932 761.19061 538.66211 764.25977 538.66211 z M 187.30469 539.41992 L 199.68359 539.41992 C 202.73404 539.41992 205.01734 539.53324 206.5332 539.75781 C 208.04907 539.98239 209.4999 540.44901 210.88477 541.16016 C 212.41935 541.96487 213.53218 543.00477 214.22461 544.27734 C 214.91704 545.53121 215.26367 547.03772 215.26367 548.79688 C 215.26367 550.7806 214.75862 552.47337 213.74805 553.87695 C 212.73747 555.26182 211.38937 556.3766 209.70508 557.21875 L 209.70508 557.44336 C 212.53095 558.02351 214.75857 559.26691 216.38672 561.17578 C 218.01487 563.06593 218.83008 565.46255 218.83008 568.36328 C 218.83008 570.44058 218.43639 572.27451 217.65039 573.86523 C 216.86439 575.45596 215.80724 576.76563 214.47852 577.79492 C 212.90651 579.03007 211.17531 579.90959 209.28516 580.43359 C 207.41372 580.9576 205.02768 581.21875 202.12695 581.21875 L 187.30469 581.21875 L 187.30469 539.41992 z M 282.29883 539.41992 L 289.70898 539.41992 L 304.92383 581.21875 L 299.00195 581.21875 L 294.90234 569.57031 L 276.82422 569.57031 L 272.72656 581.21875 L 267.08398 581.21875 L 282.29883 539.41992 z M 311.26953 539.41992 L 322.97461 539.41992 C 325.50105 539.41992 327.60672 539.58892 329.29102 539.92578 C 330.97531 540.24393 332.49045 540.82387 333.83789 541.66602 C 335.35376 542.62045 336.53285 543.82739 337.375 545.28711 C 338.23586 546.72812 338.66602 548.56205 338.66602 550.78906 C 338.66602 553.80208 337.90844 556.32927 336.39258 558.36914 C 334.87671 560.39029 332.79026 561.91602 330.13281 562.94531 L 345.85352 581.21875 L 338.63867 581.21875 L 324.6582 564.60156 L 316.82617 564.60156 L 316.82617 581.21875 L 311.26953 581.21875 L 311.26953 539.41992 z M 351.24219 539.41992 L 361.68555 539.41992 C 365.76528 539.41992 369.003 539.7195 371.39844 540.31836 C 373.81259 540.89851 375.852 541.70313 377.51758 542.73242 C 380.36216 544.51029 382.5792 546.87906 384.16992 549.83594 C 385.76064 552.79281 386.55664 556.30031 386.55664 560.36133 C 386.55664 564.16035 385.72417 567.60353 384.05859 570.69141 C 382.41173 573.77928 380.21195 576.1759 377.46094 577.87891 C 375.55207 579.05791 373.41856 579.90959 371.06055 580.43359 C 368.72125 580.9576 365.63332 581.21875 361.79688 581.21875 L 351.24219 581.21875 L 351.24219 539.41992 z M 461.05859 539.41992 L 487.75586 539.41992 L 487.75586 544.36133 L 466.61719 544.36133 L 466.61719 556.15039 L 484.7793 556.15039 L 484.7793 561.0918 L 466.61719 561.0918 L 466.61719 581.21875 L 461.05859 581.21875 L 461.05859 539.41992 z M 554.48047 539.41992 L 582.01953 539.41992 L 582.01953 544.36133 L 560.03906 544.36133 L 560.03906 555.81445 L 582.01953 555.81445 L 582.01953 560.75586 L 560.03906 560.75586 L 560.03906 576.2793 L 582.01953 576.2793 L 582.01953 581.21875 L 554.48047 581.21875 L 554.48047 539.41992 z M 590.86133 539.41992 L 602.56836 539.41992 C 605.0948 539.41992 607.19852 539.58892 608.88281 539.92578 C 610.56711 540.24393 612.0842 540.82387 613.43164 541.66602 C 614.94751 542.62045 616.1266 543.82739 616.96875 545.28711 C 617.82961 546.72812 618.25977 548.56205 618.25977 550.78906 C 618.25977 553.80208 617.50219 556.32927 615.98633 558.36914 C 614.47046 560.39029 612.38401 561.91602 609.72656 562.94531 L 625.44531 581.21875 L 618.23242 581.21875 L 604.25195 564.60156 L 596.41992 564.60156 L 596.41992 581.21875 L 590.86133 581.21875 L 590.86133 539.41992 z M 623.53711 539.41992 L 658.96289 539.41992 L 658.96289 544.36133 L 644.0293 544.36133 L 644.0293 581.21875 L 638.4707 581.21875 L 638.4707 544.36133 L 623.53711 544.36133 L 623.53711 539.41992 z M 662.86523 539.41992 L 679.37109 539.41992 L 679.37109 543.6875 L 673.89844 543.6875 L 673.89844 576.95312 L 679.37109 576.95312 L 679.37109 581.21875 L 662.86523 581.21875 L 662.86523 576.95312 L 668.33984 576.95312 L 668.33984 543.6875 L 662.86523 543.6875 L 662.86523 539.41992 z M 688.88867 539.41992 L 715.58398 539.41992 L 715.58398 544.36133 L 694.44531 544.36133 L 694.44531 556.15039 L 712.60742 556.15039 L 712.60742 561.0918 L 694.44531 561.0918 L 694.44531 581.21875 L 688.88867 581.21875 L 688.88867 539.41992 z M 720.13086 539.41992 L 736.63672 539.41992 L 736.63672 543.6875 L 731.16406 543.6875 L 731.16406 576.95312 L 736.63672 576.95312 L 736.63672 581.21875 L 720.13086 581.21875 L 720.13086 576.95312 L 725.60547 576.95312 L 725.60547 543.6875 L 720.13086 543.6875 L 720.13086 539.41992 z M 796.68359 539.41992 L 804.09375 539.41992 L 819.30859 581.21875 L 813.38477 581.21875 L 809.28711 569.57031 L 791.20898 569.57031 L 787.10938 581.21875 L 781.46875 581.21875 L 796.68359 539.41992 z M 816.66992 539.41992 L 852.0957 539.41992 L 852.0957 544.36133 L 837.16211 544.36133 L 837.16211 581.21875 L 831.60352 581.21875 L 831.60352 544.36133 L 816.66992 544.36133 L 816.66992 539.41992 z M 855.99805 539.41992 L 872.50391 539.41992 L 872.50391 543.6875 L 867.0293 543.6875 L 867.0293 576.95312 L 872.50391 576.95312 L 872.50391 581.21875 L 855.99805 581.21875 L 855.99805 576.95312 L 861.47266 576.95312 L 861.47266 543.6875 L 855.99805 543.6875 L 855.99805 539.41992 z M 927.27148 539.41992 L 935.88867 539.41992 L 953.9668 573.55469 L 953.9668 539.41992 L 959.16016 539.41992 L 959.16016 581.21875 L 952.2832 581.21875 L 932.46484 543.82812 L 932.46484 581.21875 L 927.27148 581.21875 L 927.27148 539.41992 z M 243.75586 543.35156 C 239.50769 543.35156 236.16725 544.82828 233.73438 547.78516 C 231.32022 550.72331 230.11328 554.90681 230.11328 560.33398 C 230.11328 565.8173 231.35001 570.01806 233.82031 572.9375 C 236.29061 575.83823 239.60127 577.28906 243.75586 577.28906 C 247.91045 577.28906 251.21443 575.83823 253.66602 572.9375 C 256.13631 570.01806 257.37109 565.8173 257.37109 560.33398 C 257.37109 554.90681 256.15553 550.72331 253.72266 547.78516 C 251.28979 544.82828 247.9666 543.35156 243.75586 543.35156 z M 432.84766 543.35156 C 428.59949 543.35156 425.25904 544.82828 422.82617 547.78516 C 420.41202 550.72331 419.20508 554.90681 419.20508 560.33398 C 419.20508 565.8173 420.43986 570.01806 422.91016 572.9375 C 425.38046 575.83823 428.69306 577.28906 432.84766 577.28906 C 437.00225 577.28906 440.30427 575.83823 442.75586 572.9375 C 445.22616 570.01806 446.46094 565.8173 446.46094 560.33398 C 446.46094 554.90681 445.24537 550.72331 442.8125 547.78516 C 440.37963 544.82828 437.05839 543.35156 432.84766 543.35156 z M 899.06055 543.35156 C 894.81238 543.35156 891.47193 544.82828 889.03906 547.78516 C 886.62491 550.72331 885.41602 554.90681 885.41602 560.33398 C 885.41602 565.8173 886.65275 570.01806 889.12305 572.9375 C 891.59335 575.83823 894.90595 577.28906 899.06055 577.28906 C 903.21514 577.28906 906.51717 575.83823 908.96875 572.9375 C 911.43905 570.01806 912.67383 565.8173 912.67383 560.33398 C 912.67383 554.90681 911.45826 550.72331 909.02539 547.78516 C 906.59252 544.82828 903.27128 543.35156 899.06055 543.35156 z M 192.86328 544.16406 L 192.86328 556.23633 L 200.04883 556.23633 C 201.78927 556.23633 203.17383 556.15085 204.20312 555.98242 C 205.23242 555.79528 206.18683 555.42081 207.06641 554.85938 C 207.94598 554.29794 208.56435 553.57879 208.91992 552.69922 C 209.29421 551.80093 209.48047 550.74183 209.48047 549.52539 C 209.48047 548.51481 209.31342 547.66509 208.97656 546.97266 C 208.6397 546.28022 208.09623 545.71754 207.34766 545.28711 C 206.46808 544.78182 205.4023 544.47361 204.14844 544.36133 C 202.89457 544.23033 201.34101 544.16406 199.48828 544.16406 L 192.86328 544.16406 z M 316.82617 544.19336 L 316.82617 559.96875 L 322.44141 559.96875 C 324.20056 559.96875 325.73491 559.81896 327.04492 559.51953 C 328.35493 559.20139 329.46776 558.62144 330.38477 557.7793 C 331.22691 556.99329 331.84528 556.09456 332.23828 555.08398 C 332.65 554.05469 332.85547 552.75365 332.85547 551.18164 C 332.85547 549.98392 332.64137 548.92677 332.21094 548.00977 C 331.79922 547.07405 331.10596 546.28863 330.13281 545.65234 C 329.32809 545.10963 328.37368 544.73516 327.26953 544.5293 C 326.16538 544.30472 324.86434 544.19336 323.36719 544.19336 L 316.82617 544.19336 z M 356.80078 544.19336 L 356.80078 576.44727 L 362.02148 576.44727 C 364.69764 576.44727 367.02799 576.25042 369.01172 575.85742 C 371.01416 575.46442 372.84809 574.73469 374.51367 573.66797 C 376.59097 572.33925 378.14454 570.58884 379.17383 568.41797 C 380.22183 566.2471 380.74609 563.53365 380.74609 560.27734 C 380.74609 557.00233 380.17478 554.24182 379.0332 551.99609 C 377.89163 549.75037 376.18827 547.9827 373.92383 546.69141 C 372.27696 545.75569 370.52851 545.10948 368.67578 544.75391 C 366.82306 544.37962 364.60407 544.19336 362.02148 544.19336 L 356.80078 544.19336 z M 596.41992 544.19336 L 596.41992 559.96875 L 602.03516 559.96875 C 603.79431 559.96875 605.32866 559.81896 606.63867 559.51953 C 607.94868 559.20139 609.06151 558.62144 609.97852 557.7793 C 610.82066 556.99329 611.43903 556.09456 611.83203 555.08398 C 612.24375 554.05469 612.44922 552.75365 612.44922 551.18164 C 612.44922 549.98392 612.23317 548.92677 611.80273 548.00977 C 611.39102 547.07405 610.69971 546.28863 609.72656 545.65234 C 608.92184 545.10963 607.96743 544.73516 606.86328 544.5293 C 605.75913 544.30472 604.45809 544.19336 602.96094 544.19336 L 596.41992 544.19336 z M 285.86328 544.27734 L 278.50977 564.79688 L 293.19141 564.79688 L 285.86328 544.27734 z M 800.24805 544.27734 L 792.89258 564.79688 L 807.57422 564.79688 L 800.24805 544.27734 z M 192.86328 560.92383 L 192.86328 576.47461 L 200.2168 576.47461 C 202.64967 576.47461 204.64397 576.35266 206.19727 576.10938 C 207.75056 575.84737 209.02376 575.38075 210.01562 574.70703 C 211.06363 573.97717 211.82983 573.1447 212.31641 572.20898 C 212.80298 571.27327 213.04687 570.06633 213.04688 568.58789 C 213.04688 566.9036 212.79435 565.56413 212.28906 564.57227 C 211.78377 563.5804 210.86583 562.73931 209.53711 562.04688 C 208.63882 561.57902 207.5452 561.27944 206.25391 561.14844 C 204.98133 560.99872 203.42776 560.92383 201.59375 560.92383 L 192.86328 560.92383 z M 560.80273 606.44922 C 570.28355 606.18011 576.39383 617.87988 569.64258 628.18359 C 566.75702 632.58754 565.86596 644.98613 565.52734 685.44336 C 565.28979 713.84504 564.30431 737.8639 563.33789 738.81836 C 562.37154 739.77282 559.67218 739.47571 557.33789 738.1582 C 553.58801 736.04168 553.06509 729.68831 552.85352 683.60938 C 552.70577 651.39654 551.60601 630.2407 549.97656 628.27734 C 545.43244 622.802 548.40937 611.309 555.25 607.91602 C 557.17663 606.96041 559.04703 606.49905 560.80273 606.44922 z M 515.04102 627.31836 C 520.08369 627.31836 529.10348 636.77169 534.64258 647.86523 C 536.96877 652.5241 541.42623 657.45623 544.54883 658.82617 C 549.47083 660.98558 550.22656 663.21193 550.22656 675.54492 C 550.22656 689.45978 550.05468 689.80513 542.3418 691.34766 C 532.33343 693.34896 528.7684 693.33677 526.72266 691.29102 C 525.82391 690.39227 515.83591 689.42084 504.52734 689.13281 C 488.6127 688.72745 483.45291 687.68834 481.68945 684.53711 C 480.06982 681.64297 477.31264 680.8863 472.1543 681.91797 C 466.49464 683.04991 464.28018 682.21597 462.0918 678.12695 C 459.95263 674.12997 457.6491 673.2093 452.39648 674.25586 C 448.45889 675.04037 442.26401 673.93528 437.9375 671.67578 C 433.77392 669.50132 429.14525 667.71303 427.65234 667.70703 C 424.97138 667.69168 413.96484 657.23472 413.96484 654.70312 C 413.96484 653.98417 423.90124 653.49107 436.04492 653.60547 C 457.81069 653.8106 458.4992 653.62391 484.57031 640.56445 C 499.116 633.27827 512.82752 627.31836 515.04102 627.31836 z M 604.68945 627.31836 C 606.36749 627.31836 620.0654 633.23557 635.12891 640.46875 C 661.77481 653.26351 663.1147 653.61805 684.5957 653.56055 C 696.73938 653.52818 706.67578 654.24709 706.67578 655.1582 C 706.67578 661.75202 676.5747 676.4869 667.66992 674.25195 C 662.95488 673.06856 660.76763 673.98035 658.59961 678.03125 C 656.35943 682.21725 654.17618 683.05594 648.48633 681.91797 C 643.34064 680.88883 640.57107 681.64345 638.96484 684.51367 C 637.23599 687.60293 631.69133 688.7686 615.54297 689.4375 C 603.90664 689.91956 591.54578 690.82602 588.07617 691.45117 C 584.60655 692.07633 578.93055 691.76482 575.46094 690.75977 C 569.83439 689.12986 569.07119 687.40868 568.4043 674.83008 C 567.7017 661.57844 568.04085 660.62947 574.03516 659.125 C 577.76038 658.19003 582.12791 654.12695 584.5332 649.35938 C 589.59915 639.31802 600.5741 627.31836 604.68945 627.31836 z M 520.73633 708.06445 C 533.68615 708.06445 537.73032 709.06257 541.44922 713.17188 C 544.34266 716.36909 545.18082 719.16684 543.69141 720.65625 C 540.10773 724.24016 526.97555 724.51809 520.74219 721.14258 C 517.71077 719.50094 511.18115 718.1582 506.23242 718.1582 C 492.47578 718.1582 493.97845 726.16451 509.06445 733.25586 C 522.27929 739.46755 562.62291 744.48269 579.24414 741.98047 C 606.6986 737.84724 628.10414 726.8951 621.54492 720.33594 C 618.56651 717.35753 604.2423 718.45967 591.4043 722.6543 C 585.34008 724.63572 582.26181 724.46179 578.82031 721.94531 C 574.43964 718.74188 574.44884 718.41201 579.03906 713.33984 C 582.93066 709.03966 586.78535 708.06445 599.9043 708.06445 C 619.78453 708.06445 633.49805 713.23025 633.49805 720.71875 C 633.49805 730.38856 628.26424 736.12496 612.74414 743.46484 C 598.56253 750.17164 596.90318 750.43773 590.35352 747.05078 C 586.46308 745.03896 581.80566 743.44858 580.00195 743.51758 C 578.19818 743.58675 581.59424 746.00655 587.55078 748.89453 C 593.86233 751.95453 600.03194 757.33555 602.33594 761.79102 C 605.93234 768.74523 605.92451 770.19805 602.26172 777.87891 C 600.04701 782.52312 594.53037 788.5827 590.00195 791.34375 C 581.17375 796.7263 576.09585 797.50907 570.99805 794.27344 C 568.73067 792.83428 570.56881 790.45032 577.30469 786.09961 C 591.92737 776.65494 591.14693 764.06446 575.56445 758.05859 C 572.03775 756.69933 561.20328 754.98439 551.48828 754.24805 C 517.02148 751.63557 487.14258 736.34611 487.14258 721.32031 C 487.14258 713.18717 500.12342 708.06445 520.73633 708.06445 z M 528.11914 754.49023 C 529.44928 754.52674 530.98294 754.71034 532.81055 755.01758 L 541.89062 756.54492 L 535.96484 762.4707 C 532.70575 765.72984 530.03906 770.10645 530.03906 772.19727 C 530.03906 779.70633 540.19086 786.3174 567.31055 796.4707 C 577.93976 800.45015 588.07617 812.54546 588.07617 821.24805 C 588.07617 828.27978 582.69942 838.17018 575.87109 843.69531 C 573.72709 845.43015 571.0542 846.84961 569.93164 846.84961 C 565.93943 846.84961 567.97215 837.46422 572.9375 832.9707 C 579.16154 827.338 579.44378 818.62627 573.56836 813.49805 C 571.13961 811.37814 559.43837 805.1341 547.56641 799.62305 C 517.55689 785.6925 508.21313 772.19631 519.31445 758.81445 C 521.981 755.60014 524.12871 754.38071 528.11914 754.49023 z M 558.87695 758.5332 C 565.18241 758.5332 565.36719 758.99814 565.36719 774.93359 C 565.36719 787.5322 564.52342 791.33594 561.73047 791.33594 C 556.80922 791.33594 556.17694 789.81147 554.14453 773.04102 C 552.40452 758.68292 552.4545 758.5332 558.87695 758.5332 z M 546.86133 802.56445 C 547.45778 802.5765 548.03089 802.68289 548.57227 802.89062 C 554.03914 804.98845 553.84249 807.22903 547.70312 812.78516 C 537.55881 821.9656 543.96127 834.48919 565.92578 848.43164 C 577.01038 855.4678 583.2473 866.13098 580.5 873.3457 C 579.44303 876.12147 576.28611 880.45353 573.48438 882.97266 C 567.00818 888.79565 563.59097 884.305 568.81836 876.8418 C 574.13635 869.2493 570.31537 862.53784 554.56055 851.79883 C 538.07133 840.55924 530.46853 829.699 531.96289 819.51758 C 533.20971 811.02244 541.0956 802.448 546.86133 802.56445 z M 557.50586 807.85547 C 558.20404 807.91694 559.12004 808.35762 560.32031 809 C 564.50114 811.23748 565.36719 814.28316 565.36719 826.75195 C 565.36719 837.61256 564.4296 841.80273 562.00195 841.80273 C 556.25789 841.80273 555.27344 838.95915 555.27344 822.36914 C 555.27344 810.90304 555.41132 807.67105 557.50586 807.85547 z M 548.75781 853.00391 C 549.98164 852.91719 551.06333 853.66241 551.77148 855.50781 C 552.67874 857.87211 551.90525 862.63999 550.05273 866.10156 C 546.8543 872.07788 547.34607 873.00369 559.81055 884.46289 C 571.36012 895.08094 572.9375 897.72197 572.9375 906.45508 C 572.9375 911.9141 571.16825 918.90569 569.00781 921.99023 C 566.84732 925.07472 564.12066 927.59766 562.94727 927.59766 C 559.99553 927.59766 555.27344 913.26207 555.27344 904.30078 C 555.27344 891.15619 561.49439 898.02076 562.84375 912.6543 C 563.70887 922.03596 564.70037 924.88229 565.99805 921.71289 C 570.44121 910.86096 567.95359 904.51308 554.01172 891.11719 C 542.41161 879.97132 540.13281 876.34274 540.13281 869.01562 C 540.13281 861.0138 545.08634 853.26404 548.75781 853.00391 z M 557.29102 856.94336 C 561.36009 856.94336 565.36832 863.16758 565.32812 869.43359 C 565.27277 878.65049 562.13116 882.97876 558.28711 879.13477 C 554.94478 875.79244 554.09868 856.94336 557.29102 856.94336 z M 549.98828 894.07031 C 551.21146 894.06652 552.59642 898.52753 553.24219 907.45508 C 553.99129 917.81201 556.09323 924.9451 559.92578 930.12891 C 567.53426 940.41996 565.10194 939.66745 555.53516 928.77148 C 549.0516 921.38712 547.70313 917.72197 547.70312 907.47266 C 547.70312 898.5431 548.7651 894.07411 549.98828 894.07031 z M 558.14648 938.32031 C 558.33163 938.31322 558.53508 938.34667 558.75781 938.41992 C 560.31063 938.93055 561.94542 941.81413 562.38867 944.82812 C 563.52549 952.55376 558.64899 951.68657 557.16016 943.89844 C 556.48371 940.35973 556.85049 938.36999 558.14648 938.32031 z "
       transform="translate(-317.78289,-16.208993)"
       id="path4192-2" />
    <path
       style="fill:none;fill-rule:nonzero;stroke:none;stroke-width:1px;stroke-linecap:butt;stroke-linejoin:miter;stroke-opacity:1"
       d="M -159.44808,723.20025 C -272.19819,434.56862 -110.90784,236.95266 14.065635,157.64236 200.356,39.419317 473.6366,101.42305 606.4825,287.47057 c 98.09696,137.38254 99.92959,329.18855 39.63103,435.72968"
       id="path5099-2"
       inkscape:connector-curvature="0"
       sodipodi:nodetypes="cssc" />
    <text
       xml:space="preserve"
       style="font-style:normal;font-weight:normal;font-size:17.5px;line-height:125%;font-family:sans-serif;text-align:center;letter-spacing:0px;word-spacing:0px;text-anchor:middle;fill:#b3b3b3;fill-opacity:0.05882353;fill-rule:nonzero;stroke:none;stroke-width:1px;stroke-linecap:butt;stroke-linejoin:miter;stroke-opacity:1;"
       id="text4196-5"
       sodipodi:linespacing="125%"
       transform="matrix(5.7490603,0,0,5.7490603,1857.6095,-1053.9583)"><textPath
         xlink:href="#path4194-0"
         startOffset="50%"
         id="textPath4209-5"><tspan
   style="text-align:center;text-anchor:middle;fill:#b3b3b3;fill-opacity:0.05882353;fill-rule:nonzero;"
   id="tspan4198-7">Personal Training University</tspan></textPath></text>
    <circle
       style="opacity:1;fill:#b3b3b3;fill-opacity:0.05882353;fill-rule:nonzero"
       id="path4212-7"
       cx="-223.36278"
       cy="628.02118"
       r="17.383556" />
    <path
       style="fill:none;fill-rule:nonzero;stroke:none;stroke-width:1px;stroke-linecap:butt;stroke-linejoin:miter;stroke-opacity:1"
       d="m -196.70791,808.81014 c 60.26303,106.61919 181.851,170.69011 245.687646,207.44376 81.510174,46.9292 269.356004,46.8448 340.717714,18.5425 101.4854,-40.24942 252.64107,-137.90957 289.72596,-225.98626"
       id="path5105-4"
       inkscape:connector-curvature="0"
       sodipodi:nodetypes="cssc" />
    <text
       xml:space="preserve"
       style="font-style:normal;font-weight:normal;font-size:17.5px;line-height:125%;font-family:sans-serif;text-align:center;letter-spacing:0px;word-spacing:0px;text-anchor:middle;fill:#b3b3b3;fill-opacity:0.05882353;fill-rule:nonzero;stroke:none;stroke-width:1px;stroke-linecap:butt;stroke-linejoin:miter;stroke-opacity:1;"
       id="text4216-3"
       sodipodi:linespacing="125%"
       transform="matrix(5.7490603,0,0,5.7490603,1857.6095,-1053.9583)"><textPath
         xlink:href="#path4214-9"
         startOffset="50%"
         id="textPath4223-7"><tspan
   style="font-size:17.5px;text-align:center;text-anchor:middle;fill:#b3b3b3;fill-opacity:0.05882353;fill-rule:nonzero;"
   id="tspan4218-4">CERTIFIED</tspan></textPath></text>
    <circle
       style="opacity:1;fill:#b3b3b3;fill-opacity:0.05882353;fill-rule:nonzero"
       id="path4212-6-9"
       cx="709.28156"
       cy="628.02118"
       r="17.382284" />
    <circle
       style="opacity:1;fill:#b3b3b3;fill-opacity:0.05882353;fill-rule:nonzero"
       id="path4212-6-7-2"
       cx="662.58447"
       cy="768.72699"
       r="17.382284" />
    <circle
       style="opacity:1;fill:#b3b3b3;fill-opacity:0.05882353;fill-rule:nonzero"
       id="path4212-6-1-2"
       cx="573.21289"
       cy="888.87756"
       r="17.382284" />
    <circle
       style="opacity:1;fill:#b3b3b3;fill-opacity:0.05882353;fill-rule:nonzero"
       id="path4212-6-73-2"
       cx="-92.442528"
       cy="888.87756"
       r="17.382284" />
    <circle
       style="opacity:1;fill:#b3b3b3;fill-opacity:0.05882353;fill-rule:nonzero"
       id="path4212-6-734-3"
       cx="-180.17798"
       cy="768.72699"
       r="17.382284" />
  </g>
</svg>
